<?xml version="1.0" encoding="utf-8"?>
<!-- Generator: Adobe Illustrator 24.1.1, SVG Export Plug-In . SVG Version: 6.00 Build 0)  -->
<svg version="1.1" id="Layer_1" xmlns="http://www.w3.org/2000/svg" xmlns:xlink="http://www.w3.org/1999/xlink" x="0px" y="0px"
	 viewBox="0 0 512 512" style="enable-background:new 0 0 512 512;" xml:space="preserve">
<g>
	<path d="M257.6,128c7.4-36.5,39.7-64,78.4-64s71,27.5,78.4,64H512v32h-97.6c-7.4,36.5-39.7,64-78.4,64s-71-27.5-78.4-64H0v-32
		H257.6z M336,192c26.5,0,48-21.5,48-48s-21.5-48-48-48s-48,21.5-48,48S309.5,192,336,192z"/>
	<path d="M97.6,352c7.4-36.5,39.7-64,78.4-64s71,27.5,78.4,64H512v32H254.4c-7.4,36.5-39.7,64-78.4,64s-71-27.5-78.4-64H0v-32H97.6z
		 M176,416c26.5,0,48-21.5,48-48s-21.5-48-48-48s-48,21.5-48,48S149.5,416,176,416z"/>
</g>
</svg>
